PathFileType	4	(X/Y/Z)	C:/Users/beibeiliu/ov580/test_trc/User3\out1_training_dense_right.trc
DataRate	CameraRate	NumFrames	NumMarkers	Units	OrigDataRate	OrigDataStartFrame	OrigNumFrames
120	120	12	19	mm	120	126	500
Frame#	Time	ThumbCMC			ThumbMCP			ThumbIP			ThumbTip			IndexMCP			IndexPIP			IndexTip			MiddleMCP			MiddlePIP			MiddleTip			RingMCP			RingPIP			RingTip			PinkyMCP			PinkyPIP			PinkyTip			BackHand1			BackHand2			BackHand3	
		X0	Y0	Z0	X1	Y1	Z1	X2	Y2	Z2	X3	Y3	Z3	X4	Y4	Z4	X5	Y5	Z5	X6	Y6	Z6	X7	Y7	Z7	X8	Y8	Z8	X9	Y9	Z9	X10	Y10	Z10	X11	Y11	Z11	X12	Y12	Z12	X13	Y13	Z13	X14	Y14	Z14	X15	Y15	Z15	X16	Y16	Z16	X17	Y17	Z17	X18	Y18	Z18	
125	1.04167	95.8404	81.4111	63.7181	75.576	81.7841	37.0803	63.6355	80.467	13.0441	56.7631	76.6115	-12.1096	109.416	92.8297	-11.3732	95.9158	89.8184	-36.1826	83.4491	76.6075	-60.2903	132.386	75.9908	-19.8888	114.365	63.0376	-47.3904	93.9018	31.2038	-51.943	146.95	65.449	-13.5976	142.603	50.9646	-41.1874	124.437	35.3478	-53.121	160.567	44.9101	4.97535	167.785	37.3708	-13.2417	171.546	26.5429	-34.6672	158.29	71.2541	39.5615	157.05	68.0155	70.1314	129.133	91.1587	54.9558	
126	1.05	102.694	83.7919	62.4687	84.4317	86.8082	38.7241	71.0776	89.1911	11.5767	66.8462	82.0519	-9.9644	115.588	93.2658	-11.268	103.598	84.8521	-39.4374	91.0198	70.9683	-57.7662	142.288	77.3059	-21.1284	129.576	66.7745	-48.0457	108.071	42.1086	-60.5403	157.43	61.4028	-12.8704	151.658	53.8674	-38.0643	134.851	34.1868	-56.7332	165.897	39.3903	7.19627	171.386	27.6278	-13.2221	169.171	18.4463	-35.7321	160.923	70.3122	40.5318	164.027	64.7184	71.9366	138.397	92.217	54.6843	
127	1.05833	111.451	88.685	62.4109	95.9129	90.5704	35.6927	81.5598	91.764	11.9691	77.739	83.8378	-12.6854	129.17	89.1795	-13.3754	110.8	87.1785	-39.0491	93.9263	72.223	-56.4405	153.62	78.997	-16.885	146.926	69.4225	-48.5196	123.951	51.9216	-69.9013	162.606	59.3254	-9.69864	160.699	47.9773	-39.326	145.56	33.5236	-56.2581	170.432	31.8634	4.19664	167.167	19.9	-16.9983	158.887	6.85066	-35.1908	168.154	62.2847	40.8222	165.734	61.9068	75.7415	147.704	86.279	58.2359	
128	1.06667	122.673	94.0895	63.2205	106.624	95.8688	37.7728	95.3531	93.6169	8.56001	89.4307	82.9692	-17.2958	144.905	90.2713	-13.6825	133.649	87.1488	-38.2102	113.292	77.6454	-56.5418	169.522	72.3384	-11.147	168.986	71.4642	-46.498	150.399	58.7625	-75.5954	171.535	51.2818	-9.88368	167.937	41.6884	-37.4746	148.402	30.7023	-57.6935	167.468	21.5758	4.28696	159.764	14.6248	-14.4899	140.707	7.05658	-28.6836	174.892	53.7752	40.9261	176.184	53.2823	74.2982	159.909	82.6079	58.5842	
129	1.075	133.939	92.3799	59.3192	116.674	98.4204	32.9073	102.756	97.7188	5.97204	95.7906	83.3904	-15.4321	160.995	84.9743	-15.3589	151.69	90.038	-40.0465	133.79	82.8302	-61.5097	181.181	67.3378	-12.8053	183.528	63.0504	-43.4772	169.12	59.8249	-76.6806	173.461	43.037	-7.11523	169.668	33.8457	-32.5045	145.613	24.1803	-54.642	161.11	21.6421	7.44709	143.157	8.72157	-12.6839	119.294	6.42318	-19.5691	178.584	48.5959	43.6833	176.232	49.9042	76.99	169.586	81.1384	57.0187	
130	1.08333	143.384	93.0143	61.505	123.52	101.66	30.7719	111.631	96.6774	4.41892	102.509	82.8311	-13.6313	171.695	82.6465	-10.4769	167.86	89.5703	-38.1694	157.271	83.4297	-63.4478	185.818	55.6597	-12.4765	187.148	55.6693	-43.3581	177.444	52.362	-72.5094	171.57	34.7268	-7.34529	160.582	28.1234	-33.9229	133.646	23.7558	-50.2099	153.842	19.8526	5.63111	135.409	11.8444	-6.19929	107.31	15.8205	-12.5848	181.912	45.3417	43.7131	179.804	40.9123	76.5409	176.1	75.0026	56.0927	
131	1.09167	151.947	92.3278	59.4854	132.057	101.7	36.7875	116.725	100.833	5.73058	107.162	89.4707	-11.5744	178.981	82.3932	-5.96474	181.951	85.2551	-34.241	174.925	87.1579	-61.2395	184.924	51.6971	-7.94969	186.067	48.9478	-43.6825	173.264	42.3724	-73.4452	167.508	31.5504	-4.26669	151.945	26.4753	-30.4014	120.314	25.9255	-39.6648	150.778	17.1997	9.04424	126.535	17.3383	-2.56361	103.344	20.7763	-5.63735	182.978	41.0243	46.742	185.078	39.0809	73.6581	183.573	71.1242	54.7393	
132	1.1	159.35	95.9235	65.4822	140.717	104.331	38.2391	126.415	104.063	7.35953	115.884	91.3709	-8.9863	185.977	73.5786	-3.82517	191.465	77.7581	-31.4743	190.823	84.1756	-62.2999	187.715	51.152	-8.82489	182.801	44.4006	-43.1191	164.487	41.5224	-68.3148	165.433	30.3095	-4.55135	148.114	28.1025	-25.7638	115.893	34.164	-32.6113	152.324	15.8837	13.5584	127.867	19.2539	-1.78931	107.54	25.9925	-5.34119	188.247	34.372	48.2897	186.407	33.428	79.3291	191.003	69.0939	61.0456	
133	1.10833	166.911	95.9291	67.0503	149.625	101.539	36.5228	136.297	103.795	13.1417	123.825	95.7726	-7.58964	194.391	77.4864	-3.97659	198.791	80.5842	-30.5938	200.797	78.7638	-58.7144	185.286	46.3314	-11.876	176.93	49.8491	-39.6845	148.791	47.4739	-62.8392	166.068	30.2035	-2.22525	145.565	28.5106	-22.3973	116.129	34.0919	-28.1971	153.331	14.0614	11.4494	132.452	15.5248	-3.75656	117.16	22.5049	-12.317	189.146	33.8132	47.6412	191.529	35.99	76.0033	194.884	68.2403	60.1977	
134	1.11667	175.31	89.7787	68.0159	159.608	102.007	41.2563	146.511	110.471	10.7389	134.614	100.984	-10.3399	199.595	71.4899	-2.53839	204.923	80.1912	-27.5856	205.83	81.0742	-57.3579	184.439	50.1056	-13.0652	165.694	51.9476	-39.2485	129.435	57.7401	-52.2967	169.371	33.2466	-3.49294	149.595	33.6776	-22.2652	118.436	45.1428	-31.9643	160.258	15.4171	13.7336	142.356	16.473	-7.20216	127.623	17.0619	-20.9578	194.109	31.9769	50.7178	191.583	31.4195	81.6328	200.626	60.0632	63.2914	
135	1.125	184.141	90.2573	66.6081	170.172	106.642	41.0239	158.392	112.711	11.3901	146.492	104.009	-7.9086	204.024	73.9654	-2.08408	205.44	76.1185	-29.729	203.943	79.8638	-56.1579	181.252	49.0746	-14.1588	160.917	56.4998	-35.0739	129.577	67.4712	-41.9716	171.447	33.2565	-6.46202	151.976	36.7531	-25.6937	128.232	43.9188	-34.2853	162.763	14.9867	12.4444	148.512	10.4473	-8.70638	137.281	8.15709	-25.5258	194.129	27.9746	46.8039	196.099	27.6189	80.803	204.402	58.0186	59.2086	
136	1.13333	191.707	87.7642	71.3166	180.817	101.039	42.6841	170.698	109.04	15.9965	159.421	106.055	-6.24142	206.511	68.0323	-2.67331	206.392	81.1764	-28.178	197.124	84.9802	-56.5761	185.372	50.3354	-11.4499	167.719	62.6249	-30.7146	134.141	74.3655	-36.1079	177.631	29.8963	-2.50044	162.012	35.0763	-24.1698	137.994	45.5222	-40.9658	168.251	12.8842	12.5297	155.318	8.03443	-7.5962	148.523	5.18158	-27.3897	198.659	23.9529	47.57	195.258	21.5741	81.5067	211.277	52.2703	61.4329	
